<svg enable-background="new 0 0 26.2 56.2" viewBox="0 0 26.2 56.2" xmlns="http://www.w3.org/2000/svg"><path d="m0 0h26.2v56.2h-26.2z" fill="#2a4995" stroke="#2a4995" stroke-miterlimit="10" stroke-width=".8"/><path d="m13.3 8.9-.4 1.3" fill="none"/><path d="m5.2 17.9.6.2" fill="none"/><path d="m9.4 11-.7 1.3" fill="none"/><path d="m6.6 22.1 1.3-.6" fill="none"/><path d="m10.7 24.3h-1.3" fill="none"/><path d="m6.5 45.5v-10h1.8l3.7 6.7v-6.7h1.7v10h-1.8l-3.7-6.5v6.5zm9.2 0v-9.9h1.8v8.2h4.5v1.7z" fill="#fff"/><g fill="#f5bb24"><path d="m12.8 13.9.7-.4.7.4-.2-.7.7-.5h-.9l-.3-.8-.2.8h-.9l.7.5z"/><path d="m9.2 14.8.7-.5.7.5-.2-.7.7-.5h-.9l-.3-.8-.2.8h-.9l.7.5z"/><path d="m7.3 15.2-.3.8h-.8l.7.5-.3.7.7-.4.7.4-.3-.7.7-.5h-.8z"/><path d="m6.3 20 .7.5-.2-.7.7-.5h-.9l-.3-.8-.2.8h-.9l.7.5-.3.7z"/><path d="m7.6 22.6-.3-.8-.3.8h-.8l.7.4-.3.8.7-.5.7.5-.3-.8.7-.4z"/><path d="m10.2 25-.3-.8-.2.8h-.9l.7.5-.3.7.7-.5.7.5-.2-.7.7-.5z"/><path d="m13.8 25.9-.3-.8-.2.8h-.9l.7.4-.3.8.7-.5.7.5-.2-.8.7-.4z"/><path d="m17.4 25-.3-.8-.2.8h-.9l.7.5-.3.7.7-.5.7.5-.2-.7.7-.5z"/><path d="m20 22.6-.2-.8-.3.8h-.9l.7.4-.2.8.7-.5.7.5-.3-.8.7-.4z"/><path d="m21.9 19.3h-.9l-.3-.8-.2.8h-.9l.7.4-.3.8.7-.5.7.5-.2-.8z"/><path d="m19.1 17.2.7-.5.7.5-.3-.7.7-.5h-.9l-.2-.8-.3.8h-.9l.7.5z"/><path d="m17.1 12.8-.2.8h-.9l.7.5-.3.7.7-.5.7.5-.2-.7.7-.5h-.9z"/></g></svg>